<svg xmlns="http://www.w3.org/2000/svg" width="200" height="200">
  <!-- Camera outline, top-left quadrant -->
  <g transform="translate(14, 24)">
    <rect x="0" y="10" width="80" height="55" rx="8" fill="none" stroke="#4ec5c1" stroke-width="2.5" opacity="0.13"/>
    <circle cx="40" cy="37" r="16" fill="none" stroke="#4ec5c1" stroke-width="2" opacity="0.13"/>
    <circle cx="40" cy="37" r="8" fill="none" stroke="#4ec5c1" stroke-width="1.5" opacity="0.10"/>
    <rect x="23" y="2" width="22" height="10" rx="4" fill="none" stroke="#4ec5c1" stroke-width="2" opacity="0.11"/>
    <circle cx="68" cy="18" r="4" fill="#4ec5c1" opacity="0.10"/>
  </g>
  <!-- Photo frame with landscape, bottom-right quadrant -->
  <g transform="translate(110, 108)">
    <rect x="0" y="0" width="75" height="58" rx="6" fill="none" stroke="#9b7ede" stroke-width="2" opacity="0.10"/>
    <polyline points="8,52 22,30 36,42 54,18 70,36" fill="none" stroke="#9b7ede" stroke-width="1.5" opacity="0.09"/>
    <circle cx="18" cy="15" r="6" fill="#9b7ede" opacity="0.07"/>
  </g>
  <!-- Tiny star/sparkle, center -->
  <g transform="translate(93, 88)" opacity="0.09" fill="#ff7a59">
    <polygon points="7,0 8.5,5 14,5 9.5,8 11,14 7,10.5 3,14 4.5,8 0,5 5.5,5"/>
  </g>
</svg>
